<?xml version="1.0" standalone="no"?>
<!DOCTYPE svg PUBLIC "-//W3C//DTD SVG 1.1//EN" "http://www.w3.org/Graphics/SVG/1.1/DTD/svg11.dtd" >
<svg xmlns="http://www.w3.org/2000/svg">
<metadata>
This is a custom SVG webfont generated by Font Squirrel.
Copyright   :  1987 1991 1993 2002 Adobe Systems Incorporated All rights reserved
Designer    : Paul Renner
Foundry URL : httpwwwadobecomtype
</metadata>
<defs>
<font id="FuturaStdBook" horiz-adv-x="1261" >
<font-face units-per-em="2048" ascent="1690" descent="-358" />
<missing-glyph horiz-adv-x="630" />
<glyph unicode=" "  horiz-adv-x="630" />
<glyph unicode="&#x09;" horiz-adv-x="630" />
<glyph unicode="&#xa0;" horiz-adv-x="630" />
<glyph unicode="!" horiz-adv-x="692" d="M231 90q0 47 34 80t81 33t81 -33t34 -80t-34 -82t-81 -35t-81 35t-34 82zM262 313v1231h168v-1231h-168z" />
<glyph unicode="&#x22;" horiz-adv-x="935" d="M209 1544h192l-36 -672h-119zM535 1544h192l-37 -672h-119z" />
<glyph unicode="#" d="M90 457v159h236l59 351h-219v159h244l73 418h158l-74 -418h254l72 418h162l-72 -418h188v-159h-215l-59 -351h207v-159h-236l-82 -457h-155l80 457h-252l-86 -457h-154l80 457h-209zM485 616h252l60 351h-252z" />
<glyph unicode="$" d="M152 375l165 47q14 -109 92 -190.5t185 -90.5v625q-80 33 -136.5 65.5t-112.5 79.5t-85 113t-29 147q0 156 102.5 260.5t260.5 127.5v210h135v-210q102 -14 189.5 -78t134.5 -156l-135 -88q-78 137 -189 158v-506q88 -37 147.5 -72t118 -86t87 -120.5t28.5 -157.5 q0 -170 -107.5 -299t-273.5 -164v-226h-135v213q-164 8 -288.5 121t-153.5 277zM403 1165q0 -131 191 -217v449q-82 -16 -136.5 -82t-54.5 -150zM729 156q96 33 152.5 111.5t56.5 181.5q0 156 -209 256v-549z" />
<glyph unicode="%" horiz-adv-x="1632" d="M66 1233q0 141 101 239.5t242.5 98.5t243 -98.5t101.5 -239.5q0 -139 -101.5 -237.5t-243 -98.5t-242.5 97.5t-101 238.5zM197 1233q0 -84 63.5 -144.5t149.5 -60.5t149.5 60.5t63.5 144.5q0 86 -63.5 146.5t-149.5 60.5t-149.5 -60.5t-63.5 -146.5zM324 27l899 1544 l82 -49l-893 -1549zM881 309.5q0 141.5 101 239.5t242.5 98t243 -98t101.5 -240q0 -139 -101.5 -237.5t-243 -98.5t-242.5 97.5t-101 239zM1012 309q0 -84 63.5 -144.5t149.5 -60.5t149.5 60.5t63.5 144.5q0 86 -63.5 146.5t-149.5 60.5t-149.5 -60.5t-63.5 -146.5z" />
<glyph unicode="&#x26;" horiz-adv-x="1423" d="M80 395q0 74 23.5 140.5t52 111.5t89 97.5t99.5 80t115 78.5l18 12q-4 6 -20.5 29t-22.5 31t-20.5 29.5t-20.5 31.5l-18 31q-12 20 -17.5 33.5t-13.5 34t-11 36t-6 35t-3 37.5q0 145 96 236.5t242 91.5q135 0 231 -86t96 -217q0 -66 -20.5 -121t-69.5 -106.5t-80 -78 t-102 -79.5l325 -416l175 203l124 -103l-196 -229l262 -338h-217l-166 217q-272 -244 -494 -244q-182 0 -316 121t-134 301zM248 408q0 -111 82 -195t190 -84q72 0 154 40t125 73.5t123 103.5l-344 442l-74 -49q-82 -55 -124 -89t-87 -101t-45 -141zM487 1255q0 -23 4.5 -43 t17.5 -43.5t19.5 -34t28 -41t25.5 -34.5l36 -51l15 10q8 6 44 32.5t47 36t36.5 35t36 43t19.5 46t9 57.5q0 70 -49 113.5t-119 43.5q-72 0 -121 -49t-49 -121z" />
<glyph unicode="'" horiz-adv-x="591" d="M201 1544h192l-37 -672h-118z" />
<glyph unicode="(" horiz-adv-x="587" d="M190 561.5q0 655.5 187 1052.5l145 -70q-164 -434 -164 -983t164 -983l-145 -70q-187 398 -187 1053.5z" />
<glyph unicode=")" horiz-adv-x="587" d="M66 -422q164 434 163.5 983t-163.5 983l145 70q186 -397 186 -1052.5t-186 -1053.5z" />
<glyph unicode="*" horiz-adv-x="1212" d="M223 1210l49 148l271 -101l-13 287h154l-12 -287l270 101l49 -148l-278 -77l178 -226l-125 -92l-160 242l-160 -242l-124 92l180 226z" />
<glyph unicode="+" d="M135 444v160h416v416h160v-416h415v-160h-415v-415h-160v415h-416z" />
<glyph unicode="," horiz-adv-x="630" d="M119 -307l190 532l152 -53l-232 -524z" />
<glyph unicode="-" horiz-adv-x="425" d="M4 418v151h420v-151h-420z" />
<glyph unicode="." horiz-adv-x="630" d="M201 90q0 47 33.5 80t80.5 33t81 -33t34 -80t-34 -82t-81 -35t-80.5 35t-33.5 82z" />
<glyph unicode="/" horiz-adv-x="1167" d="M37 -260l958 1950l135 -62l-960 -1950z" />
<glyph unicode="0" d="M78 770q0 127 32.5 260t96 258t174.5 204t250 79t249.5 -79t174 -204t96.5 -258t33 -260q0 -145 -38 -285.5t-105.5 -255t-175 -185.5t-234.5 -71t-234.5 71t-175 185.5t-105.5 255t-38 285.5zM250 762q2 -92 22.5 -191.5t61.5 -202t118.5 -169t178 -66.5t178.5 66.5 t119 169t61.5 202t22.5 191.5q2 90 -17.5 194.5t-61.5 210t-121 175t-181.5 69.5t-181 -69.5t-120.5 -175t-61.5 -210t-17.5 -194.5z" />
<glyph unicode="1" d="M324 1384l90 160h338v-1544h-172v1384h-256z" />
<glyph unicode="2" d="M84 0l723 854q104 125 104 258q0 127 -90 213t-217 86q-137 0 -222 -90t-89 -227h-172q4 205 139 341t338 136q199 0 342 -130t143 -327q0 -190 -116 -326l-535 -628h651v-160h-999z" />
<glyph unicode="3" d="M117 401h168q6 -117 92 -192.5t205 -75.5q127 0 214 90t87 219q0 143 -91.5 218t-236.5 71v160q141 6 223 60.5t82 189.5q0 123 -74.5 196.5t-195.5 73.5q-113 0 -178.5 -67.5t-75.5 -180.5h-170q18 188 130 298t298 110q188 0 313 -117t125 -305q0 -104 -53 -197.5 t-145 -140.5q109 -49 165 -151.5t56 -227.5q0 -201 -139.5 -330t-340.5 -129q-190 0 -323 119t-135 309z" />
<glyph unicode="4" d="M12 250l959 1380h4v-1220h190v-160h-190v-250h-172v250h-791zM313 410h490v698h-4z" />
<glyph unicode="5" d="M43 250l137 98q53 -96 144.5 -155.5t197.5 -59.5q170 0 279.5 112.5t109.5 282.5q0 162 -110.5 268.5t-274.5 106.5q-141 0 -293 -98l224 739h614v-160h-493l-101 -329l92 8q225 0 369.5 -155.5t144.5 -383.5q0 -238 -163.5 -394.5t-403.5 -156.5q-152 0 -273.5 73 t-199.5 204z" />
<glyph unicode="6" d="M90 502q0 174 141 370l512 699l129 -96l-356 -480l4 -4q20 8 66 17q33 6 69 6q209 0 354.5 -149.5t145.5 -360.5q0 -221 -156.5 -376t-376 -155t-376 156t-156.5 373zM262 498q0 -152 105.5 -258.5t255 -106.5t255 106.5t105.5 258.5q0 150 -105.5 253t-254.5 103 q-152 0 -256.5 -103t-104.5 -253z" />
<glyph unicode="7" d="M72 53l876 1331h-844v160h1139l-1036 -1571z" />
<glyph unicode="8" d="M160 432q0 121 60.5 221.5t166.5 149.5q-88 49 -138 142t-50 196q0 184 125 307t307 123t307 -123t125 -307q0 -102 -50 -195.5t-139 -142.5q106 -49 167 -149.5t61 -221.5q0 -199 -135.5 -329t-336 -130t-335.5 130t-135 329zM332 430q0 -123 87 -210t212 -87t212 87 t87 210t-87 210t-212 87t-212 -87t-87 -210zM362 1145q0 -113 79 -192t189.5 -79t189.5 79t79 192q0 111 -79 188.5t-189.5 77.5t-189.5 -77.5t-79 -188.5z" />
<glyph unicode="9" d="M92 1044q0 219 157 373t376 154t375.5 -153.5t156.5 -373.5q0 -172 -143 -370l-512 -701l-129 88l356 490l-4 4q-68 -20 -133 -20q-211 0 -355.5 149t-144.5 360zM264 1050.5q0 -149.5 104.5 -253t256.5 -103.5q150 0 255 103.5t105 253t-105.5 255t-255 105.5 t-255 -105.5t-105.5 -255z" />
<glyph unicode=":" horiz-adv-x="630" d="M201 90q0 47 33.5 80t80.5 33t81 -33t34 -80t-34 -82t-81 -35t-80.5 35t-33.5 82zM201 876.5q0 47.5 33.5 80t80.5 32.5t81 -32.5t34 -80t-34 -82t-81 -34.5t-80.5 34.5t-33.5 82z" />
<glyph unicode=";" horiz-adv-x="630" d="M123 -307l190 532l152 -53l-232 -524zM252 876.5q0 47.5 33.5 80t81 32.5t81 -32.5t33.5 -80t-33.5 -82t-81 -34.5t-81 34.5t-33.5 82z" />
<glyph unicode="&#x3c;" d="M135 453v143l991 424v-174l-753 -322l753 -321v-174z" />
<glyph unicode="=" d="M135 285v159h991v-159h-991zM135 604v160h991v-160h-991z" />
<glyph unicode="&#x3e;" d="M135 29v174l754 321l-754 322v174l991 -424v-143z" />
<glyph unicode="?" horiz-adv-x="999" d="M127 1221q0 156 109.5 253t267.5 97q156 0 262 -105.5t106 -263.5q0 -174 -110 -274q-12 -10 -24.5 -19.5t-29 -18.5t-28.5 -15.5t-32.5 -14.5t-30.5 -11l-33 -11l-31 -11q-6 -2 -33.5 -10t-30.5 -8q-158 -43 -157 -170q0 -70 49 -117t119 -47q82 0 124 56.5t42 140.5 h165q4 -150 -91 -252.5t-242 -102.5q-143 0 -238.5 96.5t-95.5 237.5q0 127 73.5 199t206.5 115q143 45 183 71q78 55 78 164q0 94 -59.5 153.5t-151.5 59.5q-86 0 -143.5 -58.5t-57.5 -144.5q0 -49 12 -98h-170zM381 90q0 47 34 80t81 33t80.5 -33t33.5 -80t-33.5 -82 t-80.5 -35t-81 35t-34 82z" />
<glyph unicode="@" horiz-adv-x="1638" d="M74 772q0 340 226 569.5t556 229.5q285 0 481 -176q229 -199 230 -469q0 -264 -127 -430q-70 -92 -154 -136.5t-162 -40.5q-92 4 -110 125q-125 -125 -279 -125q-137 0 -240.5 111t-103.5 264q0 193 117 338.5t301 145.5q162 0 272 -144l29 125h145l-102 -522 q-18 -51 -17 -112.5t46 -61.5q74 0 151.5 125t85.5 266q14 262 -148.5 415.5t-420.5 153.5q-272 0 -450.5 -185t-178.5 -466q0 -291 190.5 -471t473.5 -180q260 0 391 94l143 -104q-266 -137 -551 -138q-334 0 -564 228.5t-230 570.5zM535 709q0 -109 58 -177.5t163 -68.5 q125 0 191.5 86t82.5 213q14 123 -44 199.5t-165 76.5q-119 0 -202.5 -102t-83.5 -227z" />
<glyph unicode="A" horiz-adv-x="1431" d="M12 0l713 1618l694 -1618h-190l-182 438h-660l-186 -438h-189zM457 598h522l-258 619z" />
<glyph unicode="B" horiz-adv-x="1163" d="M156 0v1544h254q231 0 373.5 -98t142.5 -320q0 -201 -152 -301q135 -33 214 -143.5t79 -251.5q0 -219 -153.5 -324.5t-399.5 -105.5h-358zM328 160h172q395 0 395 282q0 274 -418 275h-149v-557zM328 864h65q86 0 141.5 8.5t110.5 33t82 79.5t27 141q0 160 -87 209 t-272 49h-67v-520z" />
<glyph unicode="C" horiz-adv-x="1468" d="M68 766q0 332 236.5 568.5t567.5 236.5q258 0 461 -152v-213q-199 205 -471 205q-256 0 -439 -190.5t-183 -448.5t184 -448.5t442 -190.5q262 0 467 205v-213q-209 -152 -461 -152q-328 0 -566 232.5t-238 560.5z" />
<glyph unicode="D" horiz-adv-x="1388" d="M156 0v1544h290q193 0 334.5 -39t268.5 -147q256 -221 256 -588q0 -350 -252 -575q-129 -115 -269.5 -155t-341.5 -40h-286zM328 160h125q158 0 273.5 33.5t213.5 125.5q193 180 193 453q0 287 -201 463q-98 88 -212 118.5t-267 30.5h-125v-1224z" />
<glyph unicode="E" horiz-adv-x="1093" d="M156 0v1544h800v-160h-628v-458h610v-160h-610v-606h628v-160h-800z" />
<glyph unicode="F" horiz-adv-x="978" d="M156 0v1544h702v-160h-530v-458h514v-160h-514v-766h-172z" />
<glyph unicode="G" horiz-adv-x="1679" d="M66 768q0 332 235.5 567.5t568.5 235.5q397 0 654 -334l-125 -117q-207 291 -531 291q-262 0 -446 -190.5t-184 -454.5q0 -252 180 -436q88 -88 204.5 -142.5t233.5 -54.5q211 0 381 138.5t170 344.5h-459v160h643q0 -20 1 -38q0 -152 -29 -265q-33 -127 -131 -242 q-104 -123 -257 -190.5t-315 -67.5q-326 0 -560 234.5t-234 560.5z" />
<glyph unicode="H" horiz-adv-x="1462" d="M164 0v1544h172v-626h790v626h172v-1544h-172v758h-790v-758h-172z" />
<glyph unicode="I" horiz-adv-x="489" d="M160 0v1544h172v-1544h-172z" />
<glyph unicode="J" horiz-adv-x="643" d="M-135 -45l96 133q94 -88 182 -88q41 0 71 14.5t47.5 44t28.5 56t15 70.5t5 69t1 68v1222h172v-1222q0 -82 -3 -128.5t-20.5 -113t-53.5 -113.5q-96 -127 -267 -127q-139 0 -274 115z" />
<glyph unicode="K" horiz-adv-x="1251" d="M156 0v1544h172v-661l657 661h232l-725 -719l749 -825h-237l-633 709l-43 -43v-666h-172z" />
<glyph unicode="L" horiz-adv-x="768" d="M156 0v1544h172v-1384h426v-160h-598z" />
<glyph unicode="M" horiz-adv-x="1835" d="M43 0l313 1632l562 -1296l563 1296l313 -1632h-176l-199 1044h-4l-497 -1107l-496 1107h-4l-199 -1044h-176z" />
<glyph unicode="N" horiz-adv-x="1708" d="M166 0v1610l1204 -1262v1196h172v-1614l-1204 1260v-1190h-172z" />
<glyph unicode="O" horiz-adv-x="1765" d="M78 770q0 332 236.5 566.5t568 234.5t568.5 -234.5t237 -566.5t-237 -564.5t-568.5 -232.5t-568 232.5t-236.5 564.5zM250 772q0 -262 185.5 -450.5t447.5 -188.5t447.5 188.5t185.5 450.5q0 264 -184.5 451.5t-449 187.5t-448.5 -187.5t-184 -451.5z" />
<glyph unicode="P" horiz-adv-x="1030" d="M156 0v1544h254q127 0 217 -14t166 -68q84 -59 129 -152t45 -200q0 -209 -148 -332q-125 -102 -366 -102h-125v-676h-172zM328 836h114q352 0 353 278q0 74 -23.5 125t-59.5 79t-93.5 43t-106.5 19t-121 4h-63v-548z" />
<glyph unicode="Q" horiz-adv-x="1765" d="M78 770q0 332 236.5 566.5t568.5 234.5q334 0 569.5 -236.5t235.5 -568.5q0 -305 -224 -545l232 -235h-219l-129 139q-94 -72 -220.5 -112t-244.5 -40q-332 0 -568.5 232.5t-236.5 564.5zM250 772q0 -262 185.5 -450.5t447.5 -188.5q193 0 344 115l-373 375h225l267 -279 q170 178 170 428q0 264 -184.5 451.5t-449 187.5t-448.5 -187.5t-184 -451.5z" />
<glyph unicode="R" horiz-adv-x="1110" d="M156 0v1544h223q119 0 213 -18.5t178 -63.5t129 -132t45 -212q0 -178 -104.5 -294.5t-282.5 -131.5l492 -692h-211l-467 678h-43v-678h-172zM328 829h53q82 0 144.5 10.5t123 38t92 85t31.5 143.5q0 74 -22.5 126t-55 81.5t-88 46t-105.5 20.5t-122 4h-51v-555z" />
<glyph unicode="S" horiz-adv-x="1144" d="M82 373l168 47q16 -121 102 -204t207 -83q127 0 222.5 87t95.5 214q0 51 -17.5 95t-39 71t-68.5 57.5t-74 44t-86 39.5l-94 41q-164 74 -250 160t-86 236q0 174 127 283.5t305 109.5q129 0 233.5 -62.5t165.5 -177.5l-137 -88q-96 168 -266 168q-104 0 -180 -67.5 t-76 -172.5q0 -47 20.5 -85.5t63.5 -68.5t72.5 -46.5t84.5 -40.5l103 -45q88 -39 145.5 -73t113.5 -84t84 -119.5t28 -157.5q0 -201 -141.5 -339.5t-344.5 -138.5q-184 0 -314 110t-167 290z" />
<glyph unicode="T" horiz-adv-x="962" d="M20 1384v160h922v-160h-377v-1384h-172v1384h-373z" />
<glyph unicode="U" horiz-adv-x="1402" d="M152 578v966h172v-919q0 -88 1 -125t17 -105.5t49 -113.5q49 -68 136 -108t175 -40q84 0 167 37t137 100q35 43 53 105.5t20 104.5t2 120v25v919h172v-966q0 -147 -25.5 -243.5t-109.5 -184.5q-164 -176 -416 -177q-238 0 -399 158q-92 88 -121.5 190.5t-29.5 256.5z" />
<glyph unicode="V" horiz-adv-x="1277" d="M12 1544h187l440 -1177l440 1177h187l-627 -1636z" />
<glyph unicode="W" horiz-adv-x="2234" d="M27 1544h186l405 -1157l500 1237l500 -1237l405 1157h187l-592 -1624l-500 1243l-500 -1243z" />
<glyph unicode="X" horiz-adv-x="1155" d="M27 0l456 799l-417 745h196l316 -581l315 581h197l-418 -745l456 -799h-196l-354 635l-355 -635h-196z" />
<glyph unicode="Y" horiz-adv-x="1214" d="M16 1544h199l393 -688l393 688h199l-506 -880v-664h-172v664z" />
<glyph unicode="Z" horiz-adv-x="1200" d="M29 0l841 1384h-735v160h1022l-844 -1384h822v-160h-1106z" />
<glyph unicode="[" horiz-adv-x="645" d="M213 -492v2106h389v-152h-221v-1802h221v-152h-389z" />
<glyph unicode="\" horiz-adv-x="1167" d="M37 1628l135 62l958 -1690l-133 -61z" />
<glyph unicode="]" horiz-adv-x="645" d="M43 -340h221v1802h-221v152h389v-2106h-389v152z" />
<glyph unicode="^" d="M135 659l422 885h148l421 -885h-182l-313 672l-318 -672h-178z" />
<glyph unicode="_" horiz-adv-x="1024" d="M0 -154h1024v-102h-1024v102z" />
<glyph unicode="`" horiz-adv-x="733" d="M160 1446l172 78l243 -336l-102 -58z" />
<glyph unicode="a" horiz-adv-x="1181" d="M74 479q0 213 127 361.5t336 148.5q203 0 329 -164h4v138h164v-963h-164v133h-4q-125 -160 -331 -160q-205 0 -333 149.5t-128 356.5zM242 492q0 -150 85 -258.5t230 -108.5q152 0 237 105.5t85 258.5q0 150 -88.5 249.5t-235.5 99.5q-137 0 -225 -102.5t-88 -243.5z" />
<glyph unicode="b" horiz-adv-x="1181" d="M147 0v1690h164v-865h4q125 164 330 164q209 0 336 -148.5t127 -359.5q0 -209 -128 -358.5t-333 -149.5q-213 0 -332 160h-4v-133h-164zM303 492q0 -150 85 -258.5t230 -108.5q152 0 237 105.5t85 258.5q0 150 -88 249.5t-236 99.5q-137 0 -225 -102.5t-88 -243.5z" />
<glyph unicode="c" horiz-adv-x="974" d="M59 481q0 213 150.5 360.5t363.5 147.5q162 0 297 -96v-217h-4q-127 162 -299 162q-145 0 -242.5 -104.5t-97.5 -252t92.5 -252t239.5 -104.5q186 0 313 166h5v-219q-145 -98 -306 -99q-219 0 -365.5 145.5t-146.5 362.5z" />
<glyph unicode="d" horiz-adv-x="1181" d="M74 479q0 213 127 361.5t336 148.5q205 0 329 -164h4v865h164v-1690h-164v133h-4q-123 -160 -331 -160q-205 0 -333 149.5t-128 356.5zM242 492q0 -150 85 -258.5t230 -108.5q152 0 237 105.5t85 258.5q0 150 -88.5 249.5t-235.5 99.5q-137 0 -225 -102.5t-88 -243.5z " />
<glyph unicode="e" horiz-adv-x="1062" d="M70 469q0 223 124.5 371.5t342.5 148.5q223 0 346 -159q112 -144 111 -343q0 -20 -1 -41h-755q2 -135 90 -228t225 -93q182 0 293 199l139 -80q-145 -270 -444 -271q-211 0 -341 142.5t-130 353.5zM246 586h575q-16 106 -96 179t-186.5 73t-192.5 -74t-100 -178z" />
<glyph unicode="f" horiz-adv-x="561" d="M80 811v152h90v383q0 180 43 249q76 121 248 121q51 0 117 -20v-166q-68 23 -111 22q-39 0 -64.5 -13t-40 -29.5t-20.5 -56.5t-7 -69.5t-1 -95.5v-325h244v-152h-244v-811h-164v811h-90z" />
<glyph unicode="g" horiz-adv-x="1187" d="M63 477q0 211 129.5 361.5t335.5 150.5q205 0 328 -164h4v138h164v-916q0 -100 -3 -152.5t-25.5 -127t-69.5 -134.5q-133 -170 -373 -170q-205 0 -337 121t-136 322h164q2 -131 88 -211t219 -80q92 0 154.5 31.5t95.5 90t46 126t13 155.5v115h-4q-57 -76 -146 -118 t-188 -42q-205 0 -332 147.5t-127 356.5zM231 492q0 -150 85 -258.5t231 -108.5q152 0 236.5 105.5t84.5 258.5q0 150 -88 249.5t-235 99.5q-137 0 -225.5 -102.5t-88.5 -243.5z" />
<glyph unicode="h" horiz-adv-x="1081" d="M156 0v1690h163v-840l5 -4q104 143 274 143q184 0 256 -112.5t72 -305.5v-571h-164v543q0 70 -5 113.5t-23.5 90t-62.5 69t-112 22.5q-66 0 -112 -25t-70.5 -59.5t-37.5 -90t-16.5 -99.5t-3.5 -107v-457h-163z" />
<glyph unicode="i" horiz-adv-x="536" d="M152 1325q0 47 34.5 82t81.5 35t82 -35t35 -82q0 -49 -35 -83t-82 -34t-81.5 34t-34.5 83zM186 0v963h164v-963h-164z" />
<glyph unicode="j" horiz-adv-x="536" d="M152 1325q0 47 34.5 82t81.5 35t82 -35t35 -82q0 -49 -35 -83t-82 -34t-81.5 34t-34.5 83zM186 -541v1504h164v-1504h-164z" />
<glyph unicode="k" horiz-adv-x="962" d="M147 0v1690h164v-1084l351 357h219l-412 -410l489 -553h-217l-387 438l-43 -43v-395h-164z" />
<glyph unicode="l" horiz-adv-x="464" d="M152 0v1690h163v-1690h-163z" />
<glyph unicode="m" horiz-adv-x="1572" d="M156 0v963h163v-105h5q84 131 231 131q86 0 156.5 -43t109.5 -117q41 78 120 119t169 41q307 0 307 -403v-586h-164v559q0 59 -4 98t-20.5 86.5t-54 71t-97.5 23.5q-68 0 -111.5 -29t-63 -82t-27 -102.5t-7.5 -114.5v-510h-163v547q0 291 -173 291q-68 0 -113.5 -31 t-65 -86t-27 -106.5t-7.5 -116.5v-498h-163z" />
<glyph unicode="n" horiz-adv-x="1081" d="M156 0v963h163v-117h5q104 143 274 143q184 0 256 -112.5t72 -305.5v-571h-164v543q0 70 -5 113.5t-23.5 90t-62.5 69t-112 22.5q-66 0 -112 -25t-70.5 -59.5t-37.5 -90t-16.5 -99.5t-3.5 -107v-457h-163z" />
<glyph unicode="o" horiz-adv-x="1150" d="M70 479q0 213 147.5 361.5t358 148.5t358 -148.5t147.5 -361.5q0 -211 -147.5 -358.5t-358 -147.5t-358 147.5t-147.5 358.5zM233 481.5q0 -149.5 96.5 -253t246 -103.5t246 103.5t96.5 253t-96.5 253t-246 103.5t-246 -103.5t-96.5 -253z" />
<glyph unicode="p" horiz-adv-x="1181" d="M147 -541v1504h164v-138h4q123 164 332 164q205 0 333 -150.5t128 -359.5q0 -213 -126 -359.5t-337 -146.5q-209 0 -330 162h-4v-676h-164zM303 492q0 -150 85 -258.5t230 -108.5q152 0 237 105.5t85 258.5q0 150 -88 249.5t-236 99.5q-137 0 -225 -102.5t-88 -243.5z " />
<glyph unicode="q" horiz-adv-x="1181" d="M74 477q0 209 127 360.5t334 151.5q209 0 331 -164h4v138h164v-1504h-164v676h-4q-121 -162 -329 -162q-211 0 -337 146.5t-126 357.5zM242 492q0 -150 85 -258.5t230 -108.5q152 0 237 105.5t85 258.5q0 150 -88.5 249.5t-235.5 99.5q-137 0 -225 -102.5t-88 -243.5z " />
<glyph unicode="r" horiz-adv-x="686" d="M147 0v963h164v-105h4q51 68 95.5 99.5t117.5 31.5q68 0 148 -45l-78 -149q-63 43 -98 43q-188 0 -189 -357v-481h-164z" />
<glyph unicode="s" horiz-adv-x="817" d="M76 217l145 62q35 -76 78 -115t119 -39q68 0 111.5 41t43.5 106q0 59 -45 98.5t-108.5 65t-127 55t-108.5 86t-45 140.5q0 119 84 195.5t203 76.5q82 0 152.5 -50t103.5 -128l-137 -72q-18 41 -53 70t-78 29q-45 0 -82 -31t-37 -76q0 -18 5 -33.5t20.5 -30t26.5 -24.5 t38 -22.5t39 -18.5t47 -20.5t47 -18.5q102 -43 162.5 -104.5t60.5 -171.5q0 -135 -95 -224.5t-230 -89.5q-121 0 -211 64.5t-129 179.5z" />
<glyph unicode="t" horiz-adv-x="491" d="M63 811v152h101v346h164v-346h172v-152h-172v-811h-164v811h-101z" />
<glyph unicode="u" horiz-adv-x="1048" d="M143 408v555h164v-537q0 -55 3 -94t16.5 -81t36 -67.5t63.5 -42t98.5 -16.5t98.5 16.5t63.5 42t35.5 67.5t16 81t3 94v537h164v-555q0 -434 -381 -434t-381 434z" />
<glyph unicode="v" horiz-adv-x="948" d="M2 963h186l287 -648l287 648h184l-471 -1026z" />
<glyph unicode="w" horiz-adv-x="1556" d="M6 963h187l284 -652l299 725l301 -725l287 652h186l-477 -1031l-297 717l-297 -717z" />
<glyph unicode="x" horiz-adv-x="1019" d="M2 0l410 512l-351 451h201l252 -328l252 328h205l-353 -451l400 -512h-199l-305 391l-307 -391h-205z" />
<glyph unicode="y" horiz-adv-x="1019" d="M-4 963h190l340 -691l312 691h186l-711 -1504h-186l311 631z" />
<glyph unicode="z" horiz-adv-x="1062" d="M20 0l695 811h-565v152h894l-692 -811h664v-152h-996z" />
<glyph unicode="{" horiz-adv-x="684" d="M104 496v131q96 31 125 103.5t29 223.5v383q0 115 60.5 196t113.5 81h150v-152h-82q-27 0 -42.5 -9t-22.5 -34.5t-8 -46t-1 -65.5v-387q0 -84 -19.5 -154t-49 -112t-50 -62.5t-37.5 -30.5q25 -14 54.5 -46t65.5 -119t36 -195v-385q0 -45 1 -65.5t8 -46.5t22.5 -35 t42.5 -9h82v-152h-150q-53 0 -113.5 81t-60.5 196v381q0 152 -29 225.5t-125 104.5z" />
<glyph unicode="|" horiz-adv-x="1167" d="M504 -438v2048h160v-2048h-160z" />
<glyph unicode="}" horiz-adv-x="684" d="M102 -340h82q27 0 42.5 9t22.5 35t8 46.5t1 65.5v385q0 84 19.5 154.5t49 112.5t50 62.5t37.5 30.5q-25 14 -54.5 46t-65.5 118t-36 195v387q0 45 -1 65.5t-8 46t-22.5 34.5t-42.5 9h-82v152h150q53 0 113.5 -81t60.5 -196v-383q0 -152 28.5 -224.5t125.5 -102.5v-131 q-96 -31 -125 -105t-29 -225v-381q0 -115 -60.5 -196t-113.5 -81h-150v152z" />
<glyph unicode="~" d="M135 410q109 301 285 301q84 0 223 -93q18 -12 52 -35.5t54.5 -37t47 -25.5t45.5 -12q41 0 80 56.5t65 142.5l139 -58q-102 -301 -284 -301q-74 0 -209 90l-37 25q-25 16 -36 23.5t-30.5 19.5t-32 18t-26.5 12.5t-26.5 9.5t-24.5 3q-82 0 -144 -197z" />
<glyph unicode="&#xa2;" d="M195 778q0 193 120.5 340.5t309.5 169.5v217h135v-213q133 -12 246 -90v-217h-5q-106 135 -241 156v-705q143 20 246 164h4v-219q-133 -88 -250 -96v-230h-135v232q-180 20 -305 164.5t-125 326.5zM362 791q0 -127 72 -227.5t191 -125.5v699q-117 -23 -190 -124t-73 -222 z" />
<glyph unicode="&#xa3;" d="M76 59q121 197 299 199q66 92 65 191q0 55 -14 100h-260v131h205l-39 76q-8 14 -32 59t-32 62.5t-24.5 57.5t-23.5 65.5t-13 61.5t-6 71q0 186 134 312t322 126q199 0 323 -132t126 -331l-168 -45q-2 147 -68.5 245.5t-207.5 98.5q-119 0 -202 -80t-83 -199 q0 -72 29.5 -147.5t82 -165.5t70.5 -135h291v-131h-246q14 -53 14 -92q0 -104 -67 -221l10 -5q4 -2 85 -30.5t131 -43t81 -14.5q61 0 103.5 42t82.5 112l140 -84q-47 -102 -129 -170t-187 -68q-84 0 -250 60q-170 59 -225 59q-111 0 -184 -125z" />
<glyph unicode="&#xa5;" d="M39 1544h199l393 -684l393 684h199l-318 -553h297v-131h-373l-112 -205h485v-131h-485v-524h-172v524h-486v131h486l-113 205h-373v131h297z" />
<glyph unicode="&#xa7;" horiz-adv-x="1212" d="M209 596q0 115 56.5 203t158.5 131q-180 90 -180 289q0 156 113.5 254t273.5 98q84 0 166 -37t127 -100q70 -98 73 -265h-163q-12 244 -205 244q-94 0 -155.5 -56.5t-61.5 -150.5q0 -27 4 -49t16 -40.5t22.5 -33t33 -29t35 -23.5t43 -21.5t44 -17.5t49.5 -17l50 -17 q66 -25 109.5 -48t90.5 -64t71 -104.5t24 -149.5q0 -217 -216 -328q180 -92 181 -299q0 -162 -107.5 -257t-273.5 -95q-356 0 -373 395h166q0 -109 51 -173t158 -64q100 0 155.5 53t55.5 151q0 53 -17.5 93.5t-59.5 68t-70.5 40.5t-90.5 36q-10 4 -55 22.5t-65.5 27.5 t-53.5 26.5t-55 36.5q-125 98 -125 270zM381 598q0 -94 65.5 -160.5t159.5 -66.5t161 66.5t67 160.5t-67 159.5t-161 65.5t-159.5 -65.5t-65.5 -159.5z" />
<glyph unicode="&#xa8;" horiz-adv-x="956" d="M166 1333q0 47 31.5 79t79 32t79 -32t31.5 -79t-31.5 -78.5t-79 -31.5t-79 31.5t-31.5 78.5zM569 1333q0 47 33 79t78 32t78 -32t33 -79t-33 -78.5t-78 -31.5t-78 31.5t-33 78.5z" />
<glyph unicode="&#xa9;" horiz-adv-x="1638" d="M16 772q0 334 233.5 566.5t569.5 232.5t569.5 -232.5t233.5 -566.5t-233.5 -566.5t-569.5 -232.5t-569.5 232.5t-233.5 566.5zM139 772.5q0 -280.5 202 -478.5t478.5 -198t478 198t201.5 478.5t-201.5 478t-478 197.5t-478.5 -197.5t-202 -478zM406 778q0 203 120.5 332 t323.5 129q143 0 246.5 -81t130.5 -222h-125q-18 84 -86 132t-168 48q-156 0 -238 -100.5t-82 -233.5q0 -145 87 -242.5t237 -97.5q205 0 250 187h125q-18 -141 -125 -225.5t-250 -84.5q-199 0 -322.5 132t-123.5 327z" />
<glyph unicode="&#xaa;" horiz-adv-x="708" d="M43 1264q0 129 82 218t219 89q131 0 213 -98h4v81h107v-577h-107v80h-4q-80 -96 -215 -96q-133 0 -216 89t-83 214zM150 1272q0 -90 56 -155.5t150 -65.5q98 0 153.5 63.5t55.5 155.5q0 90 -56 150.5t-153 60.5q-90 0 -148 -62.5t-58 -146.5z" />
<glyph unicode="&#xab;" horiz-adv-x="1024" d="M84 492l344 436l109 -86l-277 -350l277 -340l-109 -84zM432 492l344 436l109 -86l-277 -350l277 -340l-109 -84z" />
<glyph unicode="&#xac;" d="M135 604v160h991v-553h-159v393h-832z" />
<glyph unicode="&#xad;" horiz-adv-x="425" d="M4 418v151h420v-151h-420z" />
<glyph unicode="&#xae;" horiz-adv-x="1638" d="M16 772q0 334 233.5 566.5t569.5 232.5t569.5 -232.5t233.5 -566.5t-233.5 -566.5t-569.5 -232.5t-569.5 232.5t-233.5 566.5zM139 772.5q0 -280.5 202 -478.5t478.5 -198t478 198t201.5 478.5t-201.5 478t-478 197.5t-478.5 -197.5t-202 -478zM520 340v874h381 q311 0 311 -231t-276 -240l264 -403h-147l-262 403h-148v-403h-123zM643 866h148q8 0 49 -1t58 0t54 4t55.5 11.5t41 20.5t32 33.5t9.5 50.5q0 106 -213 107h-234v-226z" />
<glyph unicode="&#xaf;" horiz-adv-x="1021" d="M162 1257v140h700v-140h-700z" />
<glyph unicode="&#xb0;" horiz-adv-x="819" d="M102 1264q-2 125 89.5 216t218.5 91t217 -91t90 -216q0 -127 -90 -217.5t-217 -90.5t-217.5 90.5t-90.5 217.5zM201 1264q0 -88 60.5 -148.5t148.5 -60.5q86 0 147 60.5t61 148.5q0 86 -61 147.5t-149 61.5q-86 0 -147.5 -61.5t-59.5 -147.5z" />
<glyph unicode="&#xb1;" d="M135 0v160h991v-160h-991zM135 547v160h416v313h160v-313h415v-160h-415v-314h-160v314h-416z" />
<glyph unicode="&#xb4;" horiz-adv-x="733" d="M160 1188l243 336l172 -78l-313 -316z" />
<glyph unicode="&#xb5;" horiz-adv-x="1048" d="M143 -541v1504h164v-537q0 -55 3 -94t16.5 -81t36 -67.5t63.5 -42t98.5 -16.5t98.5 16.5t63.5 42t35.5 67.5t16 81t3 94v537h164v-555q0 -434 -381 -435q-117 0 -217 97v-611h-164z" />
<glyph unicode="&#xb6;" horiz-adv-x="1212" d="M121 1018q-14 195 116 360.5t324 165.5h533v-133h-119v-1724h-133v1724h-166v-1724h-133v893q-176 0 -292 116.5t-130 321.5z" />
<glyph unicode="&#xb7;" horiz-adv-x="630" d="M201 524q0 47 33.5 80t80.5 33t81 -33t34 -80t-34 -81.5t-81 -34.5t-80.5 34.5t-33.5 81.5z" />
<glyph unicode="&#xb8;" horiz-adv-x="665" d="M160 -350l196 303l152 -62l-234 -299z" />
<glyph unicode="&#xba;" horiz-adv-x="690" d="M16 1264q0 127 96.5 217t233.5 90t233.5 -90t96.5 -217t-96.5 -215t-233.5 -88t-233.5 88t-96.5 215zM123 1266q0 -90 63.5 -152.5t159.5 -62.5t159.5 62.5t63.5 152.5t-63.5 152.5t-159.5 62.5t-159.5 -62.5t-63.5 -152.5z" />
<glyph unicode="&#xbb;" horiz-adv-x="1024" d="M139 152l277 340l-277 350l109 86l344 -436l-344 -424zM487 152l277 340l-277 350l109 86l344 -436l-344 -424z" />
<glyph unicode="&#xc0;" horiz-adv-x="1431" d="M12 0l713 1618l694 -1618h-190l-182 438h-660l-186 -438h-189zM428 1976l172 78l244 -336l-103 -57zM457 598h522l-258 619z" />
<glyph unicode="&#xc1;" horiz-adv-x="1431" d="M12 0l713 1618l694 -1618h-190l-182 438h-660l-186 -438h-189zM457 598h522l-258 619zM592 1718l244 336l172 -78l-314 -315z" />
<glyph unicode="&#xc2;" horiz-adv-x="1431" d="M12 0l713 1618l694 -1618h-190l-182 438h-660l-186 -438h-189zM395 1767l320 273l323 -273l-118 -92l-205 174l-203 -174zM457 598h522l-258 619z" />
<glyph unicode="&#xc3;" horiz-adv-x="1431" d="M12 0l713 1618l694 -1618h-190l-182 438h-660l-186 -438h-189zM358 1815q92 162 209 161q72 0 166 -47q106 -47 131 -47q61 0 115 98l96 -77q-29 -72 -87 -119t-130 -47q-55 0 -153 47q-102 45 -144 45q-39 0 -60.5 -24.5t-41.5 -69.5zM457 598h522l-258 619z" />
<glyph unicode="&#xc4;" horiz-adv-x="1431" d="M12 0l713 1618l694 -1618h-190l-182 438h-660l-186 -438h-189zM403 1864q0 45 32 77.5t79 32.5t79 -32.5t32 -77.5t-32 -78t-79 -33t-79 33t-32 78zM457 598h522l-258 619zM807 1864q0 45 32.5 77.5t78 32.5t78 -32.5t32.5 -77.5t-32.5 -78t-78 -33t-78 33t-32.5 78z" />
<glyph unicode="&#xc5;" horiz-adv-x="1431" d="M12 0l713 1618l694 -1618h-190l-182 438h-660l-186 -438h-189zM457 598h522l-258 619zM518 1862q0 82 59.5 140t141.5 58t140.5 -58t58.5 -140q0 -84 -58.5 -142.5t-140.5 -58.5q-84 0 -142.5 58.5t-58.5 142.5zM621 1862q0 -39 29.5 -69t68.5 -30t67.5 29t28.5 70 q0 39 -28.5 67.5t-67.5 28.5q-41 0 -69.5 -28.5t-28.5 -67.5z" />
<glyph unicode="&#xc6;" horiz-adv-x="2048" d="M12 0l688 1544h678l70 -160h-625l193 -460h608l72 -160h-611l252 -604h627l68 -160h-805l-183 434h-659l-182 -434h-191zM459 594h516l-254 608z" />
<glyph unicode="&#xc7;" horiz-adv-x="1468" d="M68 766q0 332 236.5 568.5t567.5 236.5q258 0 461 -152v-213q-199 205 -471 205q-256 0 -439 -190.5t-183 -448.5t184 -448.5t442 -190.5q262 0 467 205v-213q-209 -152 -461 -152q-328 0 -566 232.5t-238 560.5zM561 -350l197 303l151 -62l-233 -299z" />
<glyph unicode="&#xc8;" horiz-adv-x="1093" d="M156 0v1544h800v-160h-628v-458h610v-160h-610v-606h628v-160h-800zM289 1976l172 78l244 -336l-103 -57z" />
<glyph unicode="&#xc9;" horiz-adv-x="1093" d="M156 0v1544h800v-160h-628v-458h610v-160h-610v-606h628v-160h-800zM422 1718l244 336l172 -78l-314 -315z" />
<glyph unicode="&#xca;" horiz-adv-x="1093" d="M156 0v1544h800v-160h-628v-458h610v-160h-610v-606h628v-160h-800zM225 1767l320 273l323 -273l-118 -92l-205 174l-203 -174z" />
<glyph unicode="&#xcb;" horiz-adv-x="1093" d="M156 0v1544h800v-160h-628v-458h610v-160h-610v-606h628v-160h-800zM236 1864q0 45 31.5 77.5t78.5 32.5t79 -32.5t32 -77.5t-32 -78t-79 -33t-78.5 33t-31.5 78zM639 1864q0 45 33 77.5t78 32.5t77.5 -32.5t32.5 -77.5t-32.5 -78t-77.5 -33t-78 33t-33 78z" />
<glyph unicode="&#xcc;" horiz-adv-x="489" d="M-14 1976l172 78l243 -336l-102 -57zM160 0v1544h172v-1544h-172z" />
<glyph unicode="&#xcd;" horiz-adv-x="489" d="M88 1718l244 336l172 -78l-314 -315zM160 0v1544h172v-1544h-172z" />
<glyph unicode="&#xce;" horiz-adv-x="489" d="M-76 1767l320 273l323 -273l-118 -92l-205 174l-203 -174zM160 0v1544h172v-1544h-172z" />
<glyph unicode="&#xcf;" horiz-adv-x="489" d="M-68 1864q0 45 32 77.5t79 32.5t79 -32.5t32 -77.5t-32 -78t-79 -33t-79 33t-32 78zM160 0v1544h172v-1544h-172zM336 1864q0 45 32.5 77.5t78 32.5t78 -32.5t32.5 -77.5t-32.5 -78t-78 -33t-78 33t-32.5 78z" />
<glyph unicode="&#xd0;" horiz-adv-x="1388" d="M0 758v147h156v639h290q193 0 334.5 -39t268.5 -147q256 -221 256 -588q0 -350 -252 -575q-129 -115 -269.5 -155t-341.5 -40h-286v758h-156zM328 160h125q158 0 273.5 33.5t213.5 125.5q193 180 193 453q0 287 -201 463q-98 88 -212 118.5t-267 30.5h-125v-479h274v-147 h-274v-598z" />
<glyph unicode="&#xd1;" horiz-adv-x="1708" d="M166 0v1610l1204 -1262v1196h172v-1614l-1204 1260v-1190h-172zM496 1815q92 162 209 161q72 0 165 -47q106 -47 131 -47q61 0 115 98l96 -77q-29 -72 -87 -119t-130 -47q-55 0 -153 47q-102 45 -144 45q-39 0 -60.5 -24.5t-41.5 -69.5z" />
<glyph unicode="&#xd2;" horiz-adv-x="1765" d="M78 770q0 332 236.5 566.5t568 234.5t568.5 -234.5t237 -566.5t-237 -564.5t-568.5 -232.5t-568 232.5t-236.5 564.5zM250 772q0 -262 185.5 -450.5t447.5 -188.5t447.5 188.5t185.5 450.5q0 264 -184.5 451.5t-449 187.5t-448.5 -187.5t-184 -451.5zM594 1976l172 78 l244 -336l-103 -57z" />
<glyph unicode="&#xd3;" horiz-adv-x="1765" d="M78 770q0 332 236.5 566.5t568 234.5t568.5 -234.5t237 -566.5t-237 -564.5t-568.5 -232.5t-568 232.5t-236.5 564.5zM250 772q0 -262 185.5 -450.5t447.5 -188.5t447.5 188.5t185.5 450.5q0 264 -184.5 451.5t-449 187.5t-448.5 -187.5t-184 -451.5zM758 1718l243 336 l173 -78l-314 -315z" />
<glyph unicode="&#xd4;" horiz-adv-x="1765" d="M78 770q0 332 236.5 566.5t568 234.5t568.5 -234.5t237 -566.5t-237 -564.5t-568.5 -232.5t-568 232.5t-236.5 564.5zM250 772q0 -262 185.5 -450.5t447.5 -188.5t447.5 188.5t185.5 450.5q0 264 -184.5 451.5t-449 187.5t-448.5 -187.5t-184 -451.5zM561 1767l320 273 l323 -273l-119 -92l-204 174l-203 -174z" />
<glyph unicode="&#xd5;" horiz-adv-x="1765" d="M78 770q0 332 236.5 566.5t568 234.5t568.5 -234.5t237 -566.5t-237 -564.5t-568.5 -232.5t-568 232.5t-236.5 564.5zM250 772q0 -262 185.5 -450.5t447.5 -188.5t447.5 188.5t185.5 450.5q0 264 -184.5 451.5t-449 187.5t-448.5 -187.5t-184 -451.5zM524 1815 q92 162 209 161q72 0 166 -47q106 -47 131 -47q61 0 115 98l96 -77q-29 -72 -87 -119t-130 -47q-55 0 -154 47q-102 45 -143 45q-39 0 -60.5 -24.5t-41.5 -69.5z" />
<glyph unicode="&#xd6;" horiz-adv-x="1765" d="M78 770q0 332 236.5 566.5t568 234.5t568.5 -234.5t237 -566.5t-237 -564.5t-568.5 -232.5t-568 232.5t-236.5 564.5zM250 772q0 -262 185.5 -450.5t447.5 -188.5t447.5 188.5t185.5 450.5q0 264 -184.5 451.5t-449 187.5t-448.5 -187.5t-184 -451.5zM571 1864 q0 45 32 77.5t79 32.5t79 -32.5t32 -77.5t-32 -78t-79 -33t-79 33t-32 78zM975 1864q0 45 32.5 77.5t77.5 32.5t78 -32.5t33 -77.5t-33 -78t-78 -33t-77.5 33t-32.5 78z" />
<glyph unicode="&#xd8;" horiz-adv-x="1765" d="M78 770q0 332 236.5 566.5t568.5 234.5q291 0 514 -187l188 187l94 -92l-188 -187q197 -223 197 -522q0 -332 -237 -564.5t-568 -232.5q-295 0 -523 191l-184 -184l-90 96l182 182q-190 219 -190 512zM250 772q0 -221 137 -395l895 893q-170 141 -399 141 q-264 0 -448.5 -187.5t-184.5 -451.5zM479 283q176 -150 404 -150q262 0 447.5 188.5t185.5 450.5q0 227 -142 404z" />
<glyph unicode="&#xd9;" horiz-adv-x="1402" d="M152 578v966h172v-919q0 -88 1 -125t17 -105.5t49 -113.5q49 -68 136 -108t175 -40q84 0 167 37t137 100q35 43 53 105.5t20 104.5t2 120v25v919h172v-966q0 -147 -25.5 -243.5t-109.5 -184.5q-164 -176 -416 -177q-238 0 -399 158q-92 88 -121.5 190.5t-29.5 256.5z M414 1976l172 78l243 -336l-102 -57z" />
<glyph unicode="&#xda;" horiz-adv-x="1402" d="M152 578v966h172v-919q0 -88 1 -125t17 -105.5t49 -113.5q49 -68 136 -108t175 -40q84 0 167 37t137 100q35 43 53 105.5t20 104.5t2 120v25v919h172v-966q0 -147 -25.5 -243.5t-109.5 -184.5q-164 -176 -416 -177q-238 0 -399 158q-92 88 -121.5 190.5t-29.5 256.5z M578 1718l243 336l172 -78l-313 -315z" />
<glyph unicode="&#xdb;" horiz-adv-x="1402" d="M152 578v966h172v-919q0 -88 1 -125t17 -105.5t49 -113.5q49 -68 136 -108t175 -40q84 0 167 37t137 100q35 43 53 105.5t20 104.5t2 120v25v919h172v-966q0 -147 -25.5 -243.5t-109.5 -184.5q-164 -176 -416 -177q-238 0 -399 158q-92 88 -121.5 190.5t-29.5 256.5z M381 1767l319 273l324 -273l-119 -92l-205 174l-202 -174z" />
<glyph unicode="&#xdc;" horiz-adv-x="1402" d="M152 578v966h172v-919q0 -88 1 -125t17 -105.5t49 -113.5q49 -68 136 -108t175 -40q84 0 167 37t137 100q35 43 53 105.5t20 104.5t2 120v25v919h172v-966q0 -147 -25.5 -243.5t-109.5 -184.5q-164 -176 -416 -177q-238 0 -399 158q-92 88 -121.5 190.5t-29.5 256.5z M389 1864q0 45 33 77.5t78 32.5t77.5 -32.5t32.5 -77.5t-32.5 -78t-77.5 -33t-78 33t-33 78zM793 1864q0 45 31.5 77.5t78.5 32.5t79 -32.5t32 -77.5t-32 -78t-79 -33t-78.5 33t-31.5 78z" />
<glyph unicode="&#xdd;" horiz-adv-x="1214" d="M16 1544h199l393 -688l393 688h199l-506 -880v-664h-172v664zM524 1718l244 336l172 -78l-313 -315z" />
<glyph unicode="&#xde;" horiz-adv-x="1030" d="M156 0v1544h172v-287h82q127 0 217 -14t166 -67q84 -59 129 -152.5t45 -200.5q0 -209 -148 -331q-125 -102 -366 -103h-125v-389h-172zM328 549h114q352 0 353 278q0 74 -23.5 125.5t-59.5 79t-93.5 43t-106.5 19.5t-121 4h-63v-549z" />
<glyph unicode="&#xdf;" horiz-adv-x="1181" d="M57 811v152h90v294q0 215 80 316q55 70 143.5 106.5t182.5 36.5q170 0 283.5 -108.5t113.5 -276.5q0 -94 -45 -176t-127 -123q147 -51 238.5 -191.5t91.5 -301.5q0 -236 -175 -399t-413 -167v152q176 10 298 128t122 292q0 88 -39 169t-106 134q-98 76 -275 90v152 q117 -2 191.5 66.5t74.5 182.5q0 100 -67.5 163t-167.5 63q-72 0 -131.5 -31t-81.5 -92q-27 -66 -27 -260v-1182h-164v811h-90z" />
<glyph unicode="&#xe0;" horiz-adv-x="1181" d="M74 479q0 213 127 361.5t336 148.5q203 0 329 -164h4v138h164v-963h-164v133h-4q-125 -160 -331 -160q-205 0 -333 149.5t-128 356.5zM242 492q0 -150 85 -258.5t230 -108.5q152 0 237 105.5t85 258.5q0 150 -88.5 249.5t-235.5 99.5q-137 0 -225 -102.5t-88 -243.5z M303 1446l172 78l244 -336l-103 -58z" />
<glyph unicode="&#xe1;" horiz-adv-x="1181" d="M74 479q0 213 127 361.5t336 148.5q203 0 329 -164h4v138h164v-963h-164v133h-4q-125 -160 -331 -160q-205 0 -333 149.5t-128 356.5zM242 492q0 -150 85 -258.5t230 -108.5q152 0 237 105.5t85 258.5q0 150 -88.5 249.5t-235.5 99.5q-137 0 -225 -102.5t-88 -243.5z M467 1188l244 336l172 -78l-314 -316z" />
<glyph unicode="&#xe2;" horiz-adv-x="1181" d="M74 479q0 213 127 361.5t336 148.5q203 0 329 -164h4v138h164v-963h-164v133h-4q-125 -160 -331 -160q-205 0 -333 149.5t-128 356.5zM242 492q0 -150 85 -258.5t230 -108.5q152 0 237 105.5t85 258.5q0 150 -88.5 249.5t-235.5 99.5q-137 0 -225 -102.5t-88 -243.5z M270 1237l320 272l323 -272l-118 -92l-205 174l-203 -174z" />
<glyph unicode="&#xe3;" horiz-adv-x="1181" d="M74 479q0 213 127 361.5t336 148.5q203 0 329 -164h4v138h164v-963h-164v133h-4q-125 -160 -331 -160q-205 0 -333 149.5t-128 356.5zM233 1284q92 162 209 162q72 0 166 -47q106 -47 131 -47q61 0 115 98l96 -78q-29 -72 -87 -119t-130 -47q-55 0 -153 47 q-102 45 -144 45q-39 0 -60.5 -24.5t-41.5 -69.5zM242 492q0 -150 85 -258.5t230 -108.5q152 0 237 105.5t85 258.5q0 150 -88.5 249.5t-235.5 99.5q-137 0 -225 -102.5t-88 -243.5z" />
<glyph unicode="&#xe4;" horiz-adv-x="1181" d="M74 479q0 213 127 361.5t336 148.5q203 0 329 -164h4v138h164v-963h-164v133h-4q-125 -160 -331 -160q-205 0 -333 149.5t-128 356.5zM242 492q0 -150 85 -258.5t230 -108.5q152 0 237 105.5t85 258.5q0 150 -88.5 249.5t-235.5 99.5q-137 0 -225 -102.5t-88 -243.5z M279 1333q0 47 32.5 79t77.5 32t78 -32t33 -79t-33 -78.5t-78 -31.5t-77.5 31.5t-32.5 78.5zM682 1333q0 47 31.5 79t79 32t79 -32t31.5 -79t-31.5 -78.5t-79 -31.5t-79 31.5t-31.5 78.5z" />
<glyph unicode="&#xe5;" horiz-adv-x="1181" d="M74 479q0 213 127 361.5t336 148.5q203 0 329 -164h4v138h164v-963h-164v133h-4q-125 -160 -331 -160q-205 0 -333 149.5t-128 356.5zM242 492q0 -150 85 -258.5t230 -108.5q152 0 237 105.5t85 258.5q0 150 -88.5 249.5t-235.5 99.5q-137 0 -225 -102.5t-88 -243.5z M393 1331q0 82 59.5 140.5t141.5 58.5t140.5 -58.5t58.5 -140.5q0 -84 -58.5 -142.5t-140.5 -58.5t-141.5 59.5t-59.5 141.5zM496 1331q0 -41 28.5 -69.5t69.5 -28.5q39 0 67.5 28.5t28.5 69.5t-27.5 68.5t-68.5 27.5t-69.5 -28.5t-28.5 -67.5z" />
<glyph unicode="&#xe6;" horiz-adv-x="1726" d="M59 283q0 156 120 237.5t282 81.5q154 0 274 -82q-2 154 -64.5 236t-211.5 82q-115 0 -295 -62v156q190 57 305 57t214 -50t142 -148q55 92 158.5 145t214.5 53q223 0 346 -157.5t113 -385.5h-758q2 -135 90 -228t225 -93q182 0 293 199l140 -80q-145 -270 -445 -271 q-111 0 -208 49.5t-160 141.5q-109 -190 -361 -191q-166 0 -290 78t-124 232zM223 287q0 -84 74 -123t168 -39q100 0 180 40t80 130q0 84 -83 123t-175 39t-168 -43t-76 -127zM915 586h576q-16 106 -96 179t-186.5 73t-193 -74t-100.5 -178z" />
<glyph unicode="&#xe7;" horiz-adv-x="974" d="M59 481q0 213 150.5 360.5t363.5 147.5q162 0 297 -96v-217h-4q-127 162 -299 162q-145 0 -242.5 -104.5t-97.5 -252t92.5 -252t239.5 -104.5q186 0 313 166h5v-219q-145 -98 -306 -99q-219 0 -365.5 145.5t-146.5 362.5zM315 -350l197 303l152 -62l-234 -299z" />
<glyph unicode="&#xe8;" horiz-adv-x="1062" d="M70 469q0 223 124.5 371.5t342.5 148.5q223 0 346 -158.5t110 -384.5h-755q2 -135 90 -228t225 -93q182 0 293 199l139 -80q-145 -270 -444 -271q-211 0 -341 142.5t-130 353.5zM244 1446l172 78l243 -336l-102 -58zM246 586h575q-16 106 -96 179t-186.5 73t-192.5 -74 t-100 -178z" />
<glyph unicode="&#xe9;" horiz-adv-x="1062" d="M70 469q0 223 124.5 371.5t342.5 148.5q223 0 346 -158.5t110 -384.5h-755q2 -135 90 -228t225 -93q182 0 293 199l139 -80q-145 -270 -444 -271q-211 0 -341 142.5t-130 353.5zM246 586h575q-16 106 -96 179t-186.5 73t-192.5 -74t-100 -178zM408 1188l243 336l172 -78 l-313 -316z" />
<glyph unicode="&#xea;" horiz-adv-x="1062" d="M70 469q0 223 124.5 371.5t342.5 148.5q223 0 346 -158.5t110 -384.5h-755q2 -135 90 -228t225 -93q182 0 293 199l139 -80q-145 -270 -444 -271q-211 0 -341 142.5t-130 353.5zM211 1237l319 272l324 -272l-119 -92l-205 174l-202 -174zM246 586h575q-16 106 -96 179 t-186.5 73t-192.5 -74t-100 -178z" />
<glyph unicode="&#xeb;" horiz-adv-x="1062" d="M70 469q0 223 124.5 371.5t342.5 148.5q223 0 346 -158.5t110 -384.5h-755q2 -135 90 -228t225 -93q182 0 293 199l139 -80q-145 -270 -444 -271q-211 0 -341 142.5t-130 353.5zM219 1333q0 47 32 79t79 32t78.5 -32t31.5 -79t-31.5 -78.5t-78.5 -31.5t-79 31.5t-32 78.5 zM246 586h575q-16 106 -96 179t-186.5 73t-192.5 -74t-100 -178zM623 1333q0 47 32.5 79t77.5 32t78 -32t33 -79t-33 -78.5t-78 -31.5t-77.5 31.5t-32.5 78.5z" />
<glyph unicode="&#xec;" horiz-adv-x="536" d="M10 1446l172 78l244 -336l-102 -58zM186 0v963h164v-963h-164z" />
<glyph unicode="&#xed;" horiz-adv-x="536" d="M113 1188l243 336l172 -78l-313 -316zM186 0v963h164v-963h-164z" />
<glyph unicode="&#xee;" horiz-adv-x="536" d="M-53 1237l319 272l324 -272l-119 -92l-205 174l-203 -174zM186 0v963h164v-963h-164z" />
<glyph unicode="&#xef;" horiz-adv-x="536" d="M-43 1333q0 47 31.5 79t79 32t79 -32t31.5 -79t-31.5 -78.5t-79 -31.5t-79 31.5t-31.5 78.5zM186 0v963h164v-963h-164zM360 1333q0 47 33 79t78 32t78 -32t33 -79t-33 -78.5t-78 -31.5t-78 31.5t-33 78.5z" />
<glyph unicode="&#xf0;" horiz-adv-x="1148" d="M70 481q0 201 138 352.5t351 151.5q182 0 320 -131q-88 250 -347 489l-272 -182l-80 84l266 178q-100 88 -256 185l91 94q180 -117 280 -201l283 189l82 -84l-275 -185q43 -41 68.5 -68.5t85 -97t99.5 -139t85 -163t67.5 -204t22.5 -225.5q0 -137 -46 -246.5t-121.5 -173 t-161.5 -96.5t-175 -33q-211 0 -358 148.5t-147 357.5zM236 483q0 -156 99 -256t243 -100q150 0 245 104.5t95 251.5q0 145 -95.5 251t-242.5 106q-150 0 -247 -102.5t-97 -254.5z" />
<glyph unicode="&#xf1;" horiz-adv-x="1081" d="M156 0v963h163v-117h5q104 143 274 143q184 0 256 -112.5t72 -305.5v-571h-164v543q0 70 -5 113.5t-23.5 90t-62.5 69t-112 22.5q-66 0 -112 -25t-70.5 -59.5t-37.5 -90t-16.5 -99.5t-3.5 -107v-457h-163zM182 1284q92 162 209 162q72 0 166 -47q106 -47 131 -47 q61 0 115 98l96 -78q-29 -72 -87 -119t-130 -47q-55 0 -154 47q-102 45 -143 45q-39 0 -60.5 -24.5t-41.5 -69.5z" />
<glyph unicode="&#xf2;" horiz-adv-x="1150" d="M70 479q0 213 147.5 361.5t358 148.5t358 -148.5t147.5 -361.5q0 -211 -147.5 -358.5t-358 -147.5t-358 147.5t-147.5 358.5zM233 481.5q0 -149.5 96.5 -253t246 -103.5t246 103.5t96.5 253t-96.5 253t-246 103.5t-246 -103.5t-96.5 -253zM287 1446l172 78l243 -336 l-102 -58z" />
<glyph unicode="&#xf3;" horiz-adv-x="1150" d="M70 479q0 213 147.5 361.5t358 148.5t358 -148.5t147.5 -361.5q0 -211 -147.5 -358.5t-358 -147.5t-358 147.5t-147.5 358.5zM233 481.5q0 -149.5 96.5 -253t246 -103.5t246 103.5t96.5 253t-96.5 253t-246 103.5t-246 -103.5t-96.5 -253zM451 1188l243 336l172 -78 l-313 -316z" />
<glyph unicode="&#xf4;" horiz-adv-x="1150" d="M70 479q0 213 147.5 361.5t358 148.5t358 -148.5t147.5 -361.5q0 -211 -147.5 -358.5t-358 -147.5t-358 147.5t-147.5 358.5zM233 481.5q0 -149.5 96.5 -253t246 -103.5t246 103.5t96.5 253t-96.5 253t-246 103.5t-246 -103.5t-96.5 -253zM254 1237l319 272l324 -272 l-119 -92l-205 174l-202 -174z" />
<glyph unicode="&#xf5;" horiz-adv-x="1150" d="M70 479q0 213 147.5 361.5t358 148.5t358 -148.5t147.5 -361.5q0 -211 -147.5 -358.5t-358 -147.5t-358 147.5t-147.5 358.5zM217 1284q92 162 209 162q72 0 166 -47q106 -47 131 -47q61 0 115 98l96 -78q-29 -72 -87.5 -119t-129.5 -47q-55 0 -154 47q-102 45 -143 45 q-39 0 -60.5 -24.5t-42.5 -69.5zM233 481.5q0 -149.5 96.5 -253t246 -103.5t246 103.5t96.5 253t-96.5 253t-246 103.5t-246 -103.5t-96.5 -253z" />
<glyph unicode="&#xf6;" horiz-adv-x="1150" d="M70 479q0 213 147.5 361.5t358 148.5t358 -148.5t147.5 -361.5q0 -211 -147.5 -358.5t-358 -147.5t-358 147.5t-147.5 358.5zM233 481.5q0 -149.5 96.5 -253t246 -103.5t246 103.5t96.5 253t-96.5 253t-246 103.5t-246 -103.5t-96.5 -253zM264 1333q0 47 32 79t79 32 t78.5 -32t31.5 -79t-31.5 -78.5t-78.5 -31.5t-79 31.5t-32 78.5zM668 1333q0 47 32.5 79t77.5 32t78 -32t33 -79t-33 -78.5t-78 -31.5t-77.5 31.5t-32.5 78.5z" />
<glyph unicode="&#xf7;" d="M135 444v160h991v-160h-991zM514 137q0 47 35 82t82 35t82 -35t35 -82q0 -49 -35 -83t-82 -34t-82 34t-35 83zM514 911q0 47 35 82t82 35t82 -35t35 -82q0 -49 -35 -82.5t-82 -33.5t-82 33.5t-35 82.5z" />
<glyph unicode="&#xf8;" horiz-adv-x="1150" d="M41 23l139 139q-111 137 -110 317q0 213 147.5 361.5t357.5 148.5q184 0 320 -112l135 135l80 -78l-137 -137q109 -135 108 -318q0 -211 -147.5 -358.5t-358.5 -147.5q-178 0 -315 109l-139 -139zM233 481q0 -115 60 -207l491 492q-88 72 -209 72q-150 0 -246 -103.5 t-96 -253.5zM371 193q84 -68 204 -68q150 0 246.5 103.5t96.5 252.5q0 117 -60 201z" />
<glyph unicode="&#xf9;" horiz-adv-x="1048" d="M143 408v555h164v-537q0 -55 3 -94t16.5 -81t36 -67.5t63.5 -42t98.5 -16.5t98.5 16.5t63.5 42t35.5 67.5t16 81t3 94v537h164v-555q0 -434 -381 -434t-381 434zM236 1446l172 78l243 -336l-102 -58z" />
<glyph unicode="&#xfa;" horiz-adv-x="1048" d="M143 408v555h164v-537q0 -55 3 -94t16.5 -81t36 -67.5t63.5 -42t98.5 -16.5t98.5 16.5t63.5 42t35.5 67.5t16 81t3 94v537h164v-555q0 -434 -381 -434t-381 434zM399 1188l244 336l172 -78l-313 -316z" />
<glyph unicode="&#xfb;" horiz-adv-x="1048" d="M143 408v555h164v-537q0 -55 3 -94t16.5 -81t36 -67.5t63.5 -42t98.5 -16.5t98.5 16.5t63.5 42t35.5 67.5t16 81t3 94v537h164v-555q0 -434 -381 -434t-381 434zM203 1237l319 272l324 -272l-119 -92l-205 174l-203 -174z" />
<glyph unicode="&#xfc;" horiz-adv-x="1048" d="M143 408v555h164v-537q0 -55 3 -94t16.5 -81t36 -67.5t63.5 -42t98.5 -16.5t98.5 16.5t63.5 42t35.5 67.5t16 81t3 94v537h164v-555q0 -434 -381 -434t-381 434zM213 1333q0 47 33 79t78 32t77.5 -32t32.5 -79t-32.5 -78.5t-77.5 -31.5t-78 31.5t-33 78.5zM616 1333 q0 47 32 79t79 32t79 -32t32 -79t-32 -78.5t-79 -31.5t-79 31.5t-32 78.5z" />
<glyph unicode="&#xfd;" horiz-adv-x="1019" d="M-4 963h190l340 -691l312 691h186l-711 -1504h-186l311 631zM426 1188l244 336l172 -78l-314 -316z" />
<glyph unicode="&#xfe;" horiz-adv-x="1181" d="M147 -541v2231h164v-865h4q123 164 332 164q205 0 333 -150.5t128 -359.5q0 -213 -126 -359.5t-337 -146.5q-209 0 -330 162h-4v-676h-164zM303 492q0 -150 85 -258.5t230 -108.5q152 0 237 105.5t85 258.5q0 150 -88 249.5t-236 99.5q-137 0 -225 -102.5t-88 -243.5z " />
<glyph unicode="&#xff;" horiz-adv-x="1019" d="M-4 963h190l340 -691l312 691h186l-711 -1504h-186l311 631zM209 1333q0 47 32.5 79t78 32t78 -32t32.5 -79t-32.5 -78.5t-78 -31.5t-78 31.5t-32.5 78.5zM612 1333q0 47 32 79t79 32t79 -32t32 -79t-32 -78.5t-79 -31.5t-79 31.5t-32 78.5z" />
<glyph unicode="&#x131;" horiz-adv-x="536" d="M186 0v963h164v-963h-164z" />
<glyph unicode="&#x152;" horiz-adv-x="2437" d="M78 770q0 332 236.5 566.5t568.5 234.5q182 0 342.5 -87t263.5 -243h4v303h807v-160h-635v-458h616v-160h-616v-606h635v-160h-807v297h-4q-100 -154 -261 -240t-345 -84q-332 0 -568.5 232.5t-236.5 564.5zM250 772q0 -262 185.5 -450.5t447.5 -188.5t447.5 188.5 t185.5 450.5q0 264 -184.5 451.5t-449 187.5t-448.5 -187.5t-184 -451.5z" />
<glyph unicode="&#x153;" horiz-adv-x="1925" d="M70 479q0 213 147.5 361.5t357.5 148.5q137 -4 253 -65.5t173 -167.5q55 109 161 169t233 64q223 0 348 -158.5t112 -384.5h-759q2 -135 90 -228t225 -93q182 0 293 199l139 -80q-145 -270 -444 -271q-121 0 -232.5 62.5t-165.5 167.5q-61 -109 -178.5 -169.5 t-247.5 -60.5q-211 0 -358 147.5t-147 358.5zM238 481.5q0 -149.5 96 -253t245.5 -103.5t246 103.5t96.5 253t-96.5 253t-246 103.5t-245.5 -103.5t-96 -253zM1110 586h576q-16 106 -96.5 179t-187 73t-192.5 -74t-100 -178z" />
<glyph unicode="&#x178;" horiz-adv-x="1214" d="M16 1544h199l393 -688l393 688h199l-506 -880v-664h-172v664zM319 1864q0 45 33 77.5t78 32.5t78 -32.5t33 -77.5t-33 -78t-78 -33t-78 33t-33 78zM723 1864q0 45 31.5 77.5t79 32.5t79 -32.5t31.5 -77.5t-31.5 -78t-79 -33t-79 33t-31.5 78z" />
<glyph unicode="&#x192;" d="M10 -279l33 154l70 -2q70 0 122 22.5t81.5 51t52 89t31 99.5t22.5 119l117 635h-168l22 139h172l58 324q31 174 104.5 269t235.5 95q74 0 139 -26l-31 -154q-51 23 -102 23q-96 0 -131 -66q-23 -47 -54 -186l-51 -279h246l-23 -139h-247l-119 -643q-49 -276 -111 -369 q-113 -164 -366 -164z" />
<glyph unicode="&#x2c6;" horiz-adv-x="962" d="M160 1237l319 272l324 -272l-119 -92l-205 174l-203 -174z" />
<glyph unicode="&#x2da;" horiz-adv-x="716" d="M160 1331q0 82 59.5 140.5t141 58.5t140 -58.5t58.5 -140.5q0 -84 -58.5 -142.5t-140 -58.5t-141 59.5t-59.5 141.5zM262 1331q0 -41 28.5 -69.5t69.5 -28.5q39 0 68 28.5t29 69.5t-28 68.5t-69 27.5t-69.5 -28.5t-28.5 -67.5z" />
<glyph unicode="&#x2dc;" horiz-adv-x="1036" d="M160 1284q92 162 209 162q72 0 166 -47q106 -47 131 -47q61 0 114 98l97 -78q-29 -72 -87.5 -119t-130.5 -47q-55 0 -153 47q-102 45 -144 45q-39 0 -60 -24.5t-42 -69.5z" />
<glyph unicode="&#x3a9;" horiz-adv-x="1638" d="M113 0v131h342v6q-135 115 -222.5 292t-87.5 396q0 324 195 531t485 207q295 0 480.5 -215t185.5 -514q0 -225 -91 -408.5t-222 -288.5v-6h344v-131h-541v96q147 92 247.5 276.5t100.5 432.5q0 113 -32.5 221.5t-94 200.5t-160 148.5t-219.5 56.5q-231 0 -373.5 -181.5 t-142.5 -449.5q0 -236 102.5 -426.5t245.5 -278.5v-96h-542z" />
<glyph unicode="&#x3c0;" horiz-adv-x="1286" d="M20 1085q98 59 322 60h901l-16 -137h-187v-680q0 -215 35 -328h-155q-39 59 -39 313v695h-418q-12 -242 -60.5 -553.5t-107.5 -454.5h-158q61 168 108.5 468t57.5 540q-182 0 -256 -29z" />
<glyph unicode="&#x2000;" horiz-adv-x="1024" />
<glyph unicode="&#x2001;" horiz-adv-x="2048" />
<glyph unicode="&#x2002;" horiz-adv-x="1024" />
<glyph unicode="&#x2003;" horiz-adv-x="2048" />
<glyph unicode="&#x2004;" horiz-adv-x="681" />
<glyph unicode="&#x2005;" horiz-adv-x="512" />
<glyph unicode="&#x2006;" horiz-adv-x="339" />
<glyph unicode="&#x2007;" />
<glyph unicode="&#x2008;" horiz-adv-x="630" />
<glyph unicode="&#x2009;" horiz-adv-x="204" />
<glyph unicode="&#x200a;" horiz-adv-x="20" />
<glyph unicode="&#x200b;" horiz-adv-x="0" />
<glyph unicode="&#x200c;" horiz-adv-x="0" />
<glyph unicode="&#x200d;" horiz-adv-x="0" />
<glyph unicode="&#x200e;" horiz-adv-x="681" />
<glyph unicode="&#x200f;" horiz-adv-x="681" />
<glyph unicode="&#x2010;" horiz-adv-x="425" d="M4 418v151h420v-151h-420z" />
<glyph unicode="&#x2011;" horiz-adv-x="425" d="M4 418v151h420v-151h-420z" />
<glyph unicode="&#x2012;" d="M4 418v151h1256v-151h-1256z" />
<glyph unicode="&#x2013;" horiz-adv-x="1024" d="M0 418v151h1024v-151h-1024z" />
<glyph unicode="&#x2014;" horiz-adv-x="2048" d="M266 418v151h1516v-151h-1516z" />
<glyph unicode="&#x2015;" horiz-adv-x="4096" d="M4 418v151h4090v-151h-4090z" />
<glyph unicode="&#x2016;" horiz-adv-x="2334" d="M1671 -438v2048h160v-2048h-160zM504 -438v2048h160v-2048h-160z" />
<glyph unicode="&#x2018;" horiz-adv-x="591" d="M125 1049l233 522l111 -43l-193 -535z" />
<glyph unicode="&#x2019;" horiz-adv-x="591" d="M123 1036l192 535l152 -55l-234 -523z" />
<glyph unicode="&#x201a;" horiz-adv-x="591" d="M125 -307l192 532l152 -53l-233 -524z" />
<glyph unicode="&#x201c;" horiz-adv-x="935" d="M125 1049l233 522l111 -43l-193 -535zM469 1049l233 522l111 -43l-192 -535z" />
<glyph unicode="&#x201d;" horiz-adv-x="935" d="M125 1036l192 535l152 -55l-233 -523zM469 1036l193 535l151 -55l-233 -523z" />
<glyph unicode="&#x201e;" horiz-adv-x="950" d="M125 -307l192 532l152 -53l-233 -524zM483 -307l193 532l151 -53l-233 -524z" />
<glyph unicode="&#x2020;" horiz-adv-x="1212" d="M180 1006v159h342v379h168v-379h342v-159h-342v-1340h-168v1340h-342z" />
<glyph unicode="&#x2021;" horiz-adv-x="1212" d="M180 102v160h342v744h-342v159h342v379h168v-379h342v-159h-342v-744h342v-160h-342v-436h-168v436h-342z" />
<glyph unicode="&#x2022;" horiz-adv-x="1212" d="M221 772q-2 162 110.5 274.5t274.5 112.5t274.5 -112.5t112.5 -274.5q0 -160 -113.5 -272.5t-273.5 -112.5t-272.5 112.5t-112.5 272.5z" />
<glyph unicode="&#x2024;" horiz-adv-x="630" d="M201 90q0 47 33.5 80t80.5 33t81 -33t34 -80t-34 -82t-81 -35t-80.5 35t-33.5 82z" />
<glyph unicode="&#x2025;" d="M832 90q0 47 33.5 80t80.5 33t81 -33t34 -80t-34 -82t-81 -35t-80.5 35t-33.5 82zM201 90q0 47 33.5 80t80.5 33t81 -33t34 -80t-34 -82t-81 -35t-80.5 35t-33.5 82z" />
<glyph unicode="&#x2026;" horiz-adv-x="2048" d="M229 90q0 47 34 80t81 33t81 -33t34 -80t-34 -82t-81 -35t-81 35t-34 82zM909 90q0 47 34 80t81 33t81 -33t34 -80t-34 -82t-81 -35t-81 35t-34 82zM1589 90q0 47 34 80t81 33t81 -33t34 -80t-34 -82t-81 -35t-81 35t-34 82z" />
<glyph unicode="&#x202a;" horiz-adv-x="0" />
<glyph unicode="&#x202f;" horiz-adv-x="411" />
<glyph unicode="&#x2030;" horiz-adv-x="2482" d="M70 1233q0 141 101 239.5t242.5 98.5t243 -98.5t101.5 -239.5q0 -139 -101.5 -237.5t-243 -98.5t-242.5 97.5t-101 238.5zM201 1233q0 -84 63.5 -144.5t149.5 -60.5t149.5 60.5t63.5 144.5q0 86 -63.5 146.5t-149.5 60.5t-149.5 -60.5t-63.5 -146.5zM328 27l899 1544 l82 -49l-893 -1549zM885 309.5q0 141.5 101 239.5t242.5 98t243 -98t101.5 -240q0 -139 -101.5 -237.5t-243 -98.5t-242.5 97.5t-101 239zM1016 309q0 -84 63.5 -144.5t149.5 -60.5t149.5 60.5t63.5 144.5q0 86 -63.5 146.5t-149.5 60.5t-149.5 -60.5t-63.5 -146.5z M1724 309.5q0 141.5 101.5 239.5t243 98t243 -98t101.5 -240q0 -139 -101.5 -237.5t-243 -98.5t-243 97.5t-101.5 239zM1855 309q0 -84 63.5 -144.5t149.5 -60.5t149.5 60.5t63.5 144.5q0 86 -63.5 146.5t-149.5 60.5t-149.5 -60.5t-63.5 -146.5z" />
<glyph unicode="&#x2032;" horiz-adv-x="591" d="M201 1544h192l-37 -672h-118z" />
<glyph unicode="&#x2033;" horiz-adv-x="1183" d="M793 1544h192l-37 -672h-118zM201 1544h192l-37 -672h-118z" />
<glyph unicode="&#x2034;" horiz-adv-x="1775" d="M1385 1544h192l-37 -672h-118zM793 1544h192l-37 -672h-118zM201 1544h192l-37 -672h-118z" />
<glyph unicode="&#x2035;" horiz-adv-x="733" d="M160 1446l172 78l243 -336l-102 -58z" />
<glyph unicode="&#x2036;" horiz-adv-x="1466" d="M893 1446l172 78l243 -336l-102 -58zM160 1446l172 78l243 -336l-102 -58z" />
<glyph unicode="&#x2037;" horiz-adv-x="2199" d="M1626 1446l172 78l243 -336l-102 -58zM893 1446l172 78l243 -336l-102 -58zM160 1446l172 78l243 -336l-102 -58z" />
<glyph unicode="&#x2039;" horiz-adv-x="675" d="M84 492l344 436l109 -86l-277 -350l277 -340l-109 -84z" />
<glyph unicode="&#x203a;" horiz-adv-x="675" d="M139 152l277 340l-277 350l109 86l344 -436l-344 -424z" />
<glyph unicode="&#x203c;" horiz-adv-x="1384" d="M923 90q0 47 34 80t81 33t81 -33t34 -80t-34 -82t-81 -35t-81 35t-34 82zM954 313v1231h168v-1231h-168zM231 90q0 47 34 80t81 33t81 -33t34 -80t-34 -82t-81 -35t-81 35t-34 82zM262 313v1231h168v-1231h-168z" />
<glyph unicode="&#x203e;" horiz-adv-x="630" d="M-350 122v140h700v-140h-700z" />
<glyph unicode="&#x2044;" horiz-adv-x="329" d="M-330 23l899 1548l90 -49l-899 -1549z" />
<glyph unicode="&#x2047;" horiz-adv-x="1998" d="M1126 1221q0 156 109.5 253t267.5 97q156 0 262 -105.5t106 -263.5q0 -174 -110 -274q-12 -10 -24.5 -19.5t-29 -18.5t-28.5 -15.5t-32.5 -14.5t-30.5 -11l-33 -11l-31 -11q-6 -2 -33.5 -10t-30.5 -8q-158 -43 -157 -170q0 -70 49 -117t119 -47q82 0 124 56.5t42 140.5 h165q4 -150 -91 -252.5t-242 -102.5q-143 0 -238.5 96.5t-95.5 237.5q0 127 73.5 199t206.5 115q143 45 183 71q78 55 78 164q0 94 -59.5 153.5t-151.5 59.5q-86 0 -143.5 -58.5t-57.5 -144.5q0 -49 12 -98h-170zM1380 90q0 47 34 80t81 33t80.5 -33t33.5 -80t-33.5 -82 t-80.5 -35t-81 35t-34 82zM127 1221q0 156 109.5 253t267.5 97q156 0 262 -105.5t106 -263.5q0 -174 -110 -274q-12 -10 -24.5 -19.5t-29 -18.5t-28.5 -15.5t-32.5 -14.5t-30.5 -11l-33 -11l-31 -11q-6 -2 -33.5 -10t-30.5 -8q-158 -43 -157 -170q0 -70 49 -117t119 -47 q82 0 124 56.5t42 140.5h165q4 -150 -91 -252.5t-242 -102.5q-143 0 -238.5 96.5t-95.5 237.5q0 127 73.5 199t206.5 115q143 45 183 71q78 55 78 164q0 94 -59.5 153.5t-151.5 59.5q-86 0 -143.5 -58.5t-57.5 -144.5q0 -49 12 -98h-170zM381 90q0 47 34 80t81 33t80.5 -33 t33.5 -80t-33.5 -82t-80.5 -35t-81 35t-34 82z" />
<glyph unicode="&#x2048;" horiz-adv-x="1691" d="M1230 90q0 47 34 80t81 33t81 -33t34 -80t-34 -82t-81 -35t-81 35t-34 82zM1261 313v1231h168v-1231h-168zM127 1221q0 156 109.5 253t267.5 97q156 0 262 -105.5t106 -263.5q0 -174 -110 -274q-12 -10 -24.5 -19.5t-29 -18.5t-28.5 -15.5t-32.5 -14.5t-30.5 -11l-33 -11 l-31 -11q-6 -2 -33.5 -10t-30.5 -8q-158 -43 -157 -170q0 -70 49 -117t119 -47q82 0 124 56.5t42 140.5h165q4 -150 -91 -252.5t-242 -102.5q-143 0 -238.5 96.5t-95.5 237.5q0 127 73.5 199t206.5 115q143 45 183 71q78 55 78 164q0 94 -59.5 153.5t-151.5 59.5 q-86 0 -143.5 -58.5t-57.5 -144.5q0 -49 12 -98h-170zM381 90q0 47 34 80t81 33t80.5 -33t33.5 -80t-33.5 -82t-80.5 -35t-81 35t-34 82z" />
<glyph unicode="&#x2049;" horiz-adv-x="1691" d="M819 1221q0 156 109.5 253t267.5 97q156 0 262 -105.5t106 -263.5q0 -174 -110 -274q-12 -10 -24.5 -19.5t-29 -18.5t-28.5 -15.5t-32.5 -14.5t-30.5 -11l-33 -11l-31 -11q-6 -2 -33.5 -10t-30.5 -8q-158 -43 -157 -170q0 -70 49 -117t119 -47q82 0 124 56.5t42 140.5 h165q4 -150 -91 -252.5t-242 -102.5q-143 0 -238.5 96.5t-95.5 237.5q0 127 73.5 199t206.5 115q143 45 183 71q78 55 78 164q0 94 -59.5 153.5t-151.5 59.5q-86 0 -143.5 -58.5t-57.5 -144.5q0 -49 12 -98h-170zM1073 90q0 47 34 80t81 33t80.5 -33t33.5 -80t-33.5 -82 t-80.5 -35t-81 35t-34 82zM231 90q0 47 34 80t81 33t81 -33t34 -80t-34 -82t-81 -35t-81 35t-34 82zM262 313v1231h168v-1231h-168z" />
<glyph unicode="&#x2057;" horiz-adv-x="2367" d="M1977 1544h192l-37 -672h-118zM1385 1544h192l-37 -672h-118zM793 1544h192l-37 -672h-118zM201 1544h192l-37 -672h-118z" />
<glyph unicode="&#x205f;" horiz-adv-x="514" />
<glyph unicode="&#x2060;" horiz-adv-x="0" />
<glyph unicode="&#x20a8;" horiz-adv-x="1927" d="M1186 217l145 62q35 -76 78 -115t119 -39q68 0 111.5 41t43.5 106q0 59 -45 98.5t-108.5 65t-127 55t-108.5 86t-45 140.5q0 119 84 195.5t203 76.5q82 0 152.5 -50t103.5 -128l-137 -72q-18 41 -53 70t-78 29q-45 0 -82 -31t-37 -76q0 -18 5 -33.5t20.5 -30t26.5 -24.5 t38 -22.5t39 -18.5t47 -20.5t47 -18.5q102 -43 162.5 -104.5t60.5 -171.5q0 -135 -95 -224.5t-230 -89.5q-121 0 -211 64.5t-129 179.5zM156 0v1544h223q119 0 213 -18.5t178 -63.5t129 -132t45 -212q0 -178 -104.5 -294.5t-282.5 -131.5l492 -692h-211l-467 678h-43v-678 h-172zM328 829h53q82 0 144.5 10.5t123 38t92 85t31.5 143.5q0 74 -22.5 126t-55 81.5t-88 46t-105.5 20.5t-122 4h-51v-555z" />
<glyph unicode="&#x20ac;" d="M59 559l47 131h105q-4 41 -4 86q0 14 1 43t1 39h-150l47 131h115q39 266 179.5 423t396.5 157q233 0 364 -105v-170q-125 121 -346 121q-186 0 -292.5 -116.5t-129.5 -309.5h670l-47 -131h-641q0 -10 -1 -38.5t-1 -43.5q0 -18 1 -47t1 -39h579l-47 -131h-514 q29 -209 136.5 -321.5t287.5 -112.5q207 0 344 123v-172q-47 -41 -143 -71t-223 -30q-240 0 -386.5 144.5t-185.5 439.5h-164z" />
<glyph unicode="&#x2122;" horiz-adv-x="1925" d="M74 1421v123h698v-123h-287v-739h-123v739h-288zM938 682v862h207l248 -620l256 620h204v-862h-122v739h-5l-294 -739h-80l-287 739h-4v-739h-123z" />
<glyph unicode="&#x2202;" horiz-adv-x="1230" d="M96 492q0 250 141.5 405.5t337.5 155.5q139 0 239.5 -74t139.5 -148h2q4 27 5 101q0 293 -125 477t-304 184q-176 0 -303 -106l-57 115q158 123 375 122q238 0 403.5 -217t165.5 -616q0 -397 -153.5 -653t-434.5 -256q-207 0 -319.5 152.5t-112.5 357.5zM254 494 q0 -164 80 -271.5t209 -107.5h2q156 0 261 162.5t130 396.5q-31 90 -122 170t-214 80q-141 0 -243.5 -126t-102.5 -304z" />
<glyph unicode="&#x2206;" horiz-adv-x="1464" d="M70 0v111l573 1470h186l566 -1468v-113h-1325zM233 129h990l-336 860q-14 41 -75.5 197.5t-78.5 214.5h-8q-12 -45 -67.5 -190.5t-69.5 -186.5z" />
<glyph unicode="&#x220f;" horiz-adv-x="1579" d="M57 1395v143h1461v-143h-250v-1608h-156v1608h-647v-1608h-156v1608h-252z" />
<glyph unicode="&#x2211;" horiz-adv-x="1253" d="M51 -106l613 765l-586 768v111h1087v-137h-864v-8l547 -711l-590 -737v-8h942v-150h-1149v107z" />
<glyph unicode="&#x221a;" horiz-adv-x="1286" d="M76 729l301 117l295 -836q12 -45 39 -155h2q10 63 30 155l422 1817h121l-502 -2159h-143l-362 1026l-168 -63z" />
<glyph unicode="&#x221e;" horiz-adv-x="1740" d="M115 631q0 152 99 252t251 100q115 0 210 -70.5t206 -199.5q131 143 190 188q111 82 232 82q145 -2 234 -96t89 -246v-4q0 -156 -101.5 -254t-238.5 -98q-102 0 -195.5 63.5t-218.5 204.5q-76 -86 -125 -133t-130.5 -91t-167.5 -44q-137 0 -235.5 100.5t-98.5 245.5z M223 627q0 -102 66.5 -172t173.5 -70h2q35 0 71.5 12.5t62.5 26.5t63.5 47t53 48.5t54.5 57t47 50.5q-4 4 -30.5 35.5t-32.5 38t-31 34t-34 35.5t-32.5 29.5t-38 30t-37 21.5t-42 18t-43 10.5t-47.5 5.5q-104 0 -165 -74.5t-61 -183.5zM934 637q131 -141 203.5 -196.5 t156.5 -55.5q102 0 164 75t62 171q0 117 -64.5 185.5t-165.5 68.5h-2q-53 0 -111.5 -32t-89 -58.5t-90 -90t-63.5 -67.5z" />
<glyph unicode="&#x222b;" horiz-adv-x="794" d="M27 -315l28 114q57 -29 105 -28q63 0 104 51q80 102 80 383q0 180 -16.5 566t-16.5 558q0 182 28 291t93 174q78 84 205 84q74 0 123 -31l-27 -110q-41 25 -84 24q-72 0 -114 -53q-78 -88 -78 -395q0 -170 15 -550t15 -560q0 -297 -96 -445q-72 -111 -219 -110 q-86 0 -145 37z" />
<glyph unicode="&#x2248;" horiz-adv-x="1273" d="M104 365q113 211 310 210q39 0 80 -11t62.5 -21.5t62 -33t49.5 -26.5q10 -6 40.5 -22.5t44 -22.5t38 -15t47 -13t47.5 -4q66 0 115 38.5t100 126.5l65 -59q-109 -209 -288 -209q-63 0 -115.5 21.5t-149.5 74.5q-139 76 -213 76q-72 0 -123 -45t-102 -125zM104 743 q113 211 310 211q39 0 80 -11t62.5 -21.5t62 -33t49.5 -26.5q6 -4 31.5 -17.5t32.5 -17.5t26.5 -13t31 -12t28 -8.5t32.5 -7.5t33 -2q68 0 117 40t100 126l65 -57q-106 -211 -286 -211q-66 0 -118 21.5t-149 74.5q-135 76 -213 76q-72 0 -122 -43t-103 -125z" />
<glyph unicode="&#x2260;" horiz-adv-x="1273" d="M115 356v105h387l153 330h-540v104h581l123 262l82 -39l-102 -223h358v-104h-401l-154 -330h555v-105h-598l-123 -266l-84 39l107 227h-344z" />
<glyph unicode="&#x2264;" horiz-adv-x="1273" d="M115 8v107h1042v-107h-1042zM129 711v110l1022 504v-125l-909 -430v-4l909 -434v-125z" />
<glyph unicode="&#x2265;" horiz-adv-x="1273" d="M117 8v107h1038v-107h-1038zM131 207v125l907 432v4l-907 432v125l1022 -504v-110z" />
<glyph unicode="&#x25ca;" horiz-adv-x="1286" d="M123 768l457 872h129l452 -872l-456 -870h-130zM268 772l332 -633q31 -76 39 -110h8q20 70 41 108l328 627l-330 631q-18 39 -43 112h-4q-18 -61 -45 -112z" />
<glyph unicode="&#xe000;" horiz-adv-x="965" d="M0 965h965v-965h-965v965z" />
<glyph unicode="&#xfb01;" horiz-adv-x="1062" d="M55 811v152h90v383q0 180 43 249q76 121 248 121q51 0 117 -20v-166q-68 23 -111 22q-39 0 -64.5 -13t-39.5 -29.5t-20.5 -56.5t-7.5 -69.5t-1 -95.5v-325h244v-152h-244v-811h-164v811h-90zM678 1325q0 47 35 82t82 35t81.5 -35t34.5 -82q0 -49 -34.5 -83t-81.5 -34 t-82 34t-35 83zM713 0v963h164v-963h-164z" />
<glyph unicode="&#xfb02;" horiz-adv-x="1026" d="M55 811v152h90v383q0 180 43 249q76 121 248 121q51 0 117 -20v-166q-68 23 -111 22q-39 0 -64.5 -13t-39.5 -29.5t-20.5 -56.5t-7.5 -69.5t-1 -95.5v-325h244v-152h-244v-811h-164v811h-90zM713 0v1690h164v-1690h-164z" />
</font>
</defs>
</svg>
